<?xml version="1.0" encoding="utf-8"?>
<!DOCTYPE svg PUBLIC "-//W3C//DTD SVG 1.0//EN" "http://www.w3.org/TR/2001/REC-SVG-20010904/DTD/svg10.dtd">
<svg version="1.0" xmlns="http://www.w3.org/2000/svg" width="36px" height="36px" viewBox="0 0 36 36" preserveAspectRatio="xMidYMid meet">
 <g fill="#000000">
  <path d="M13.8 28.9 l-13.8 -6.9 0 -4 0 -4 14 -7 c10.3 -5.2 15 -7 18 -7 l4 0 0 4.8 0 4.8 -8 3.9 c-4.4 2.1 -8 4.2 -8 4.5 0 0.3 3.6 2.4 8 4.5 l8 3.9 0 4.8 0 4.8 -4.2 -0.1 c-3.3 0 -7.7 -1.7 -18 -7z"/>
 </g>
 <g fill="#ffffff">
  <path d="M0 18 l0 -18 18 0 18 0 0 18 0 18 -18 0 -18 0 0 -18z m34 13.4 c0 -0.8 -4.8 -3.8 -11.5 -7.1 -6.3 -3.2 -11.5 -6 -11.5 -6.3 0 -0.3 5.2 -3.1 11.5 -6.3 10.4 -5.1 12.8 -7.1 10.9 -9 -0.6 -0.6 -31.4 14.4 -31.4 15.3 0 0.9 30.4 15.8 31.3 15.3 0.4 -0.2 0.7 -1.1 0.7 -1.9z"/>
 </g>
</svg>