<?xml version="1.0" encoding="utf-8"?>
<!DOCTYPE svg PUBLIC "-//W3C//DTD SVG 1.0//EN" "http://www.w3.org/TR/2001/REC-SVG-20010904/DTD/svg10.dtd">
<svg version="1.0" xmlns="http://www.w3.org/2000/svg" width="36px" height="36px" viewBox="0 0 36 36" preserveAspectRatio="xMidYMid meet">
 <g fill="#000000">
  <path d="M13.3 28.9 l-13.3 -7.1 0 -3.8 0 -3.9 13.2 -7 c11 -5.9 14.1 -7.1 18.1 -7.1 l4.7 0 0 18 0 18 -4.7 0 c-4 -0.1 -7.1 -1.3 -18 -7.1z m14.7 -10.9 l0 -5 -4.5 2.2 c-2.5 1.2 -4.5 2.5 -4.5 2.8 0 0.5 7.3 4.6 8.8 4.9 0.1 0.1 0.2 -2.1 0.2 -4.9z"/>
 </g>
 <g fill="#ffffff">
  <path d="M0 18 l0 -18 18 0 18 0 0 18 0 18 -18 0 -18 0 0 -18z m35 0 c0 -9.3 -0.3 -17 -0.6 -17 -1.1 0 -32.4 16.5 -32.4 17 0 0.6 31.1 16.9 32.3 17 0.4 0 0.7 -7.6 0.7 -17z"/>
  <path d="M20.3 23.7 c-5.7 -2.8 -10.3 -5.4 -10.3 -5.7 0 -0.3 4.7 -2.9 10.5 -5.8 l10.5 -5.2 0 11 c0 6.1 -0.1 11 -0.2 10.9 -0.2 0 -4.9 -2.3 -10.5 -5.2z"/>
 </g>
</svg>