<?xml version="1.0" encoding="utf-8"?>
<!DOCTYPE svg PUBLIC "-//W3C//DTD SVG 1.0//EN" "http://www.w3.org/TR/2001/REC-SVG-20010904/DTD/svg10.dtd">
<svg version="1.0" xmlns="http://www.w3.org/2000/svg" width="28px" height="36px" viewBox="0 0 28 36" preserveAspectRatio="xMidYMid meet">
 <g fill="#000000">
  <path d="M8.1 22.1 l-6.1 -12 6 -4.6 6 -4.6 5.7 4.2 c3.2 2.3 5.9 4.3 6.1 4.4 0.1 0.1 -2.4 5.7 -5.7 12.4 l-6 12.2 -6 -12z m10.2 -2.6 c2 -4.2 3.7 -8 3.7 -8.5 0 -0.5 -1.8 -2.2 -4 -3.6 l-4 -2.7 -4 2.7 c-2.2 1.4 -4 3.1 -4 3.6 0 1.4 7.3 16 8 16 0.3 0 2.2 -3.4 4.3 -7.5z"/>
 </g>
</svg>