<?xml version="1.0" encoding="utf-8"?>
<!DOCTYPE svg PUBLIC "-//W3C//DTD SVG 1.0//EN" "http://www.w3.org/TR/2001/REC-SVG-20010904/DTD/svg10.dtd">
<svg version="1.0" xmlns="http://www.w3.org/2000/svg" width="36px" height="36px" viewBox="0 0 36 36" preserveAspectRatio="xMidYMid meet">
 <g fill="#000000">
  <path d="M11.3 28.2 l-11.3 -5.7 0 -4.5 0 -4.5 11.5 -5.8 c14.4 -7.1 16.3 -7.2 21 -1.1 3.2 4.3 3.5 5.3 3.5 11.4 0 6.1 -0.3 7.1 -3.5 11.4 -4.8 6.1 -6.9 6 -21.2 -1.2z m13.1 -11.6 c-0.5 -1.2 -1 -1.3 -3 -0.4 -3 1.4 -3 2.2 -0.1 3.5 2.5 1.2 4.1 -0.4 3.1 -3.1z"/>
 </g>
 <g fill="#ffffff">
  <path d="M0 18 l0 -18 18 0 18 0 0 18 0 18 -18 0 -18 0 0 -18z m30.5 6.9 c2.5 -3.4 4.5 -6.5 4.5 -6.9 0 -0.4 -2 -3.5 -4.5 -6.9 l-4.5 -6.1 -12.5 6.2 c-6.9 3.5 -12.5 6.5 -12.5 6.8 0 0.4 23.4 12.6 24.8 12.9 0.1 0.1 2.2 -2.6 4.7 -6z"/>
  <path d="M17.3 22.2 c-4 -2 -7.3 -3.9 -7.3 -4.2 0 -0.3 3.3 -2.2 7.4 -4.2 l7.4 -3.7 2.6 3.4 c3.2 4.2 3.2 5.2 -0.2 9.2 l-2.7 3.1 -7.2 -3.6z"/>
 </g>
</svg>