<?xml version="1.0" encoding="utf-8"?>
<!DOCTYPE svg PUBLIC "-//W3C//DTD SVG 1.0//EN" "http://www.w3.org/TR/2001/REC-SVG-20010904/DTD/svg10.dtd">
<svg version="1.0" xmlns="http://www.w3.org/2000/svg" width="36px" height="36px" viewBox="0 0 36 36" preserveAspectRatio="xMidYMid meet">
 <g fill="#000000">
  <path d="M3.5 29.3 c-3.1 -4.3 -3.5 -5.5 -3.5 -11.3 0 -5.8 0.4 -7 3.5 -11.2 4.7 -6.3 6.6 -6.3 21 0.9 l11.5 5.8 0 4.5 0 4.5 -11.5 5.8 c-14.4 7.2 -16.3 7.2 -21 1z m13.5 -11.3 c0 -0.4 -1.1 -1.2 -2.4 -1.8 -1.9 -0.9 -2.5 -0.8 -3 0.4 -0.3 0.8 -0.3 2 0 2.8 0.5 1.2 1.1 1.3 3 0.4 1.3 -0.6 2.4 -1.4 2.4 -1.8z"/>
 </g>
 <g fill="#ffffff">
  <path d="M0 18 l0 -18 18 0 18 0 0 18 0 18 -18 0 -18 0 0 -18z m35 0 c0 -0.3 -5.6 -3.3 -12.5 -6.8 l-12.5 -6.2 -4.5 6.2 c-2.5 3.4 -4.5 6.5 -4.5 6.8 0 0.3 2 3.4 4.5 6.8 l4.5 6.2 12.5 -6.2 c6.9 -3.5 12.5 -6.5 12.5 -6.8z"/>
  <path d="M8.4 22 l-2.7 -4 2.7 -4 2.6 -4 7.5 3.7 c4.1 2.1 7.5 4 7.5 4.3 0 0.3 -3.4 2.2 -7.5 4.3 l-7.5 3.7 -2.6 -4z"/>
 </g>
</svg>