<?xml version="1.0" encoding="utf-8"?>
<!DOCTYPE svg PUBLIC "-//W3C//DTD SVG 1.0//EN" "http://www.w3.org/TR/2001/REC-SVG-20010904/DTD/svg10.dtd">
<svg version="1.0" xmlns="http://www.w3.org/2000/svg" width="34px" height="36px" viewBox="0 0 34 36" preserveAspectRatio="xMidYMid meet">
 <g fill="#000000">
  <path d="M3.5 32 c-0.5 -0.7 1.7 -3.6 5.6 -7.6 l6.3 -6.4 -6.3 -6.4 c-3.9 -4 -6.1 -6.9 -5.6 -7.6 0.5 -0.8 2.9 1 7.4 5.4 l6.7 6.6 5.9 -6 c5.6 -5.7 7.5 -7 7.5 -5.2 0 0.4 -2.5 3.4 -5.5 6.7 -3 3.3 -5.5 6.2 -5.5 6.5 0 0.3 2.5 3.2 5.5 6.5 3 3.3 5.5 6.3 5.5 6.8 0 1.7 -1.9 0.4 -7.5 -5.3 l-5.9 -6 -6.7 6.6 c-4.5 4.4 -6.9 6.2 -7.4 5.4z"/>
 </g>
</svg>