<?xml version="1.0" encoding="utf-8"?>
<!DOCTYPE svg PUBLIC "-//W3C//DTD SVG 1.0//EN" "http://www.w3.org/TR/2001/REC-SVG-20010904/DTD/svg10.dtd">
<svg version="1.0" xmlns="http://www.w3.org/2000/svg" width="34px" height="36px" viewBox="0 0 34 36" preserveAspectRatio="xMidYMid meet">
 <g fill="#000000">
  <path d="M2.8 33.4 c-0.6 -0.6 13.3 -30.4 14.2 -30.3 0.6 0 14.4 28.5 14.2 29.5 -0.3 3 -2.5 -0.1 -7.7 -10.6 -3.3 -6.6 -6.2 -12 -6.6 -12 -0.3 0 -3.2 5.4 -6.4 12 -5.6 11.5 -6.5 12.7 -7.7 11.4z"/>
  <path d="M15.7 25.4 c-1.4 -1.5 -0.6 -3.4 1.4 -3.4 1.4 0 1.9 0.5 1.7 1.7 -0.3 1.8 -2 2.7 -3.1 1.7z"/>
 </g>
</svg>