<?xml version="1.0" encoding="utf-8"?>
<!DOCTYPE svg PUBLIC "-//W3C//DTD SVG 1.0//EN" "http://www.w3.org/TR/2001/REC-SVG-20010904/DTD/svg10.dtd">
<svg version="1.0" xmlns="http://www.w3.org/2000/svg" width="36px" height="36px" viewBox="0 0 36 36" preserveAspectRatio="xMidYMid meet">
 <g fill="#000000">
  <path d="M7 22 c-5.2 -10.3 -7 -15 -7 -18 l0 -4 18 0 18 0 0 4 c0 3 -1.8 7.7 -7 18 l-7 14 -4 0 -4 0 -7 -14z"/>
 </g>
 <g fill="#ffffff">
  <path d="M0 18 l0 -18 18 0 18 0 0 18 0 18 -18 0 -18 0 0 -18z m26.8 -0.5 l8.2 -16.5 -17 0 -17 0 8.2 16.5 c4.6 9.1 8.5 16.5 8.8 16.5 0.3 0 4.2 -7.4 8.8 -16.5z"/>
  <path d="M12.3 15.6 c-2.9 -5.7 -4.9 -10.7 -4.6 -11 1.1 -1.1 20.3 -0.7 20.3 0.4 0 1 -9.8 21 -10.3 21 -0.1 0 -2.6 -4.7 -5.4 -10.4z m7.7 -2.5 c0 -2.7 -1.9 -3.6 -3.7 -1.8 -1.8 1.8 -0.9 3.7 1.8 3.7 1.2 0 1.9 -0.7 1.9 -1.9z"/>
 </g>
</svg>