<?xml version="1.0" encoding="utf-8"?>
<!DOCTYPE svg PUBLIC "-//W3C//DTD SVG 1.0//EN" "http://www.w3.org/TR/2001/REC-SVG-20010904/DTD/svg10.dtd">
<svg version="1.0" xmlns="http://www.w3.org/2000/svg" width="36px" height="36px" viewBox="0 0 36 36" preserveAspectRatio="xMidYMid meet">
 <g fill="#000000">
  <path d="M0 32.3 c0 -2.6 2.1 -8.3 6.7 -18 l6.8 -14.3 4.2 0 4.3 0 7 14 c5.2 10.3 7 15 7 18 l0 4 -18 0 -18 0 0 -3.7z"/>
 </g>
 <g fill="#ffffff">
  <path d="M0 18 l0 -18 18 0 18 0 0 18 0 18 -18 0 -18 0 0 -18z m26.4 -0.1 c-4.7 -9.4 -8.7 -17 -8.8 -16.8 -0.2 0.2 -4 7.9 -8.4 17.2 l-8.1 16.7 17 0 16.9 0 -8.6 -17.1z"/>
  <path d="M12.1 20.8 c2.8 -5.7 5.3 -10.5 5.5 -10.7 0.3 -0.3 10.4 19.4 10.4 20.4 0 0.3 -4.7 0.5 -10.5 0.5 l-10.5 0 5.1 -10.2z m7.7 2.4 c0.3 -1.6 -0.2 -2.2 -1.7 -2.2 -2.6 0 -3.6 1.7 -2 3.6 1.6 1.9 3.3 1.3 3.7 -1.4z"/>
 </g>
</svg>