<?xml version="1.0" encoding="utf-8"?>
<!DOCTYPE svg PUBLIC "-//W3C//DTD SVG 1.0//EN" "http://www.w3.org/TR/2001/REC-SVG-20010904/DTD/svg10.dtd">
<svg version="1.0" xmlns="http://www.w3.org/2000/svg" width="28px" height="36px" viewBox="0 0 28 36" preserveAspectRatio="xMidYMid meet">
 <g fill="#000000">
  <path d="M8.1 30.5 l-6.1 -4.5 6.1 -12.1 6 -12.1 6 12.2 c3.3 6.8 5.8 12.3 5.7 12.4 -0.2 0.1 -2.9 2.1 -6 4.4 l-5.6 4.1 -6.1 -4.4z m10.2 -2 c2 -1.4 3.7 -3 3.7 -3.5 0 -1.4 -7.3 -16 -8 -16 -0.7 0 -8 14.6 -8 16 0 0.9 6.8 6 8 6 0.3 0 2.2 -1.1 4.3 -2.5z"/>
  <path d="M12.4 23.9 c-1 -1.7 1.3 -3.6 2.7 -2.2 1.2 1.2 0.4 3.3 -1.1 3.3 -0.5 0 -1.2 -0.5 -1.6 -1.1z"/>
 </g>
</svg>